<svg xmlns="http://www.w3.org/2000/svg" xmlns:xlink="http://www.w3.org/1999/xlink" viewBox="0 0 991.86 797.02"><defs><style>.cls-1{isolation:isolate;}.cls-2{opacity:0;}.cls-3{opacity:0.01;}.cls-4{opacity:0.03;}.cls-5{opacity:0.04;}.cls-6{opacity:0.06;}.cls-7{opacity:0.07;}.cls-8{opacity:0.09;}.cls-9{opacity:0.1;}.cls-10{opacity:0.11;}.cls-11{opacity:0.13;}.cls-12{opacity:0.14;}.cls-13{opacity:0.16;}.cls-14{opacity:0.17;}.cls-15{opacity:0.19;}.cls-16{opacity:0.2;}.cls-17{opacity:0.21;}.cls-18{opacity:0.23;}.cls-19{opacity:0.24;}.cls-20{opacity:0.26;}.cls-21{opacity:0.27;}.cls-22{opacity:0.29;}.cls-23{opacity:0.3;}.cls-24,.cls-25,.cls-26,.cls-48,.cls-60,.cls-73{mix-blend-mode:screen;}.cls-24{fill:url(#linear-gradient);}.cls-25{fill:url(#linear-gradient-2);}.cls-26{fill:url(#linear-gradient-3);}.cls-27{fill:url(#linear-gradient-4);}.cls-28,.cls-31,.cls-37,.cls-38{mix-blend-mode:multiply;}.cls-28{fill:url(#linear-gradient-5);}.cls-29{fill:url(#linear-gradient-6);}.cls-30{fill:url(#linear-gradient-7);}.cls-31{fill:url(#linear-gradient-8);}.cls-32{fill:url(#linear-gradient-9);}.cls-33{fill:#fff;}.cls-34{fill:url(#New_Gradient_Swatch_copy_8);}.cls-35{fill:url(#New_Gradient_Swatch_copy_8-2);}.cls-36,.cls-50,.cls-53,.cls-63,.cls-66,.cls-76{mix-blend-mode:color-dodge;}.cls-36{fill:url(#radial-gradient);}.cls-37{fill:#bcbec0;}.cls-39{fill:#d1d3d4;}.cls-40{fill:#603913;}.cls-41{fill:#9d9eb3;}.cls-42{fill:url(#New_Gradient_Swatch_copy_22);}.cls-43{fill:url(#New_Gradient_Swatch_copy_22-2);}.cls-44{fill:url(#New_Gradient_Swatch_copy_22-3);}.cls-45{fill:url(#New_Gradient_Swatch_copy_14);}.cls-46{fill:url(#New_Gradient_Swatch_copy_14-3);}.cls-47{fill:url(#New_Gradient_Swatch_copy_14-4);}.cls-48{fill:url(#New_Gradient_Swatch_1);}.cls-49{fill:url(#New_Gradient_Swatch_copy_16);}.Graphic-Style-3{fill:url(#linear-gradient-10);}.cls-50{fill:url(#radial-gradient-2);}.cls-51{fill:url(#New_Gradient_Swatch_copy_8-3);}.cls-52{fill:url(#New_Gradient_Swatch_copy_8-4);}.cls-53{fill:url(#radial-gradient-3);}.cls-54{fill:url(#New_Gradient_Swatch_copy_22-4);}.cls-55{fill:url(#New_Gradient_Swatch_copy_22-5);}.cls-56{fill:url(#New_Gradient_Swatch_copy_22-6);}.cls-57{fill:url(#New_Gradient_Swatch_copy_19);}.cls-58{fill:url(#New_Gradient_Swatch_copy_19-3);}.cls-59{fill:url(#New_Gradient_Swatch_copy_19-4);}.cls-60{fill:url(#New_Gradient_Swatch_1-2);}.cls-61{fill:url(#New_Gradient_Swatch_copy_21);}.cls-62{fill:url(#New_Gradient_Swatch_copy_13);}.cls-63{fill:url(#radial-gradient-4);}.cls-64{fill:url(#New_Gradient_Swatch_copy_8-5);}.cls-65{fill:url(#New_Gradient_Swatch_copy_8-6);}.cls-66{fill:url(#radial-gradient-5);}.cls-67{fill:url(#New_Gradient_Swatch_copy_22-7);}.cls-68{fill:url(#New_Gradient_Swatch_copy_22-8);}.cls-69{fill:url(#New_Gradient_Swatch_copy_22-9);}.cls-70{fill:url(#New_Gradient_Swatch_copy_15);}.cls-71{fill:url(#New_Gradient_Swatch_copy_15-3);}.cls-72{fill:url(#New_Gradient_Swatch_copy_15-4);}.cls-73{fill:url(#New_Gradient_Swatch_1-3);}.cls-74{fill:url(#linear-gradient-11);}.cls-75{fill:url(#New_Gradient_Swatch_copy_9);}.cls-76{fill:url(#radial-gradient-6);}</style><linearGradient id="linear-gradient" x1="652.88" y1="-2.47" x2="261.03" y2="372.76" gradientUnits="userSpaceOnUse"><stop offset="0.24" stop-color="#ff8a8a"/><stop offset="0.25" stop-color="#fd8a8e" stop-opacity="0.97"/><stop offset="0.34" stop-color="#ef88a8" stop-opacity="0.74"/><stop offset="0.43" stop-color="#e286bf" stop-opacity="0.55"/><stop offset="0.52" stop-color="#d884d3" stop-opacity="0.38"/><stop offset="0.62" stop-color="#cf83e3" stop-opacity="0.24"/><stop offset="0.71" stop-color="#c982ef" stop-opacity="0.14"/><stop offset="0.8" stop-color="#c482f8" stop-opacity="0.06"/><stop offset="0.9" stop-color="#c181fd" stop-opacity="0.01"/><stop offset="1" stop-color="#c081ff" stop-opacity="0"/></linearGradient><linearGradient id="linear-gradient-2" x1="605.92" y1="117.55" x2="54.65" y2="362.57" gradientUnits="userSpaceOnUse"><stop offset="0.17" stop-color="#ff8a8a"/><stop offset="0.19" stop-color="#fd8a8e" stop-opacity="0.97"/><stop offset="0.28" stop-color="#ef88a8" stop-opacity="0.74"/><stop offset="0.38" stop-color="#e286bf" stop-opacity="0.55"/><stop offset="0.48" stop-color="#d884d3" stop-opacity="0.38"/><stop offset="0.58" stop-color="#cf83e3" stop-opacity="0.24"/><stop offset="0.68" stop-color="#c982ef" stop-opacity="0.14"/><stop offset="0.79" stop-color="#c482f8" stop-opacity="0.06"/><stop offset="0.89" stop-color="#c181fd" stop-opacity="0.01"/><stop offset="1" stop-color="#c081ff" stop-opacity="0"/></linearGradient><linearGradient id="linear-gradient-3" x1="821.41" y1="176.3" x2="471.01" y2="524.84" xlink:href="#linear-gradient"/><linearGradient id="linear-gradient-4" x1="797.67" y1="329.76" x2="722.59" y2="65.57" gradientUnits="userSpaceOnUse"><stop offset="0" stop-color="#d4d1d8"/><stop offset="1" stop-color="#fff"/></linearGradient><linearGradient id="linear-gradient-5" x1="751.13" y1="173.13" x2="727.96" y2="122.15" gradientUnits="userSpaceOnUse"><stop offset="0" stop-color="#fff"/><stop offset="1" stop-color="#e6e7e8"/></linearGradient><linearGradient id="linear-gradient-6" x1="243.77" y1="-146.35" x2="667.68" y2="105.66" xlink:href="#linear-gradient-4"/><linearGradient id="linear-gradient-7" x1="545.57" y1="226.81" x2="762.48" y2="196.91" xlink:href="#linear-gradient-4"/><linearGradient id="linear-gradient-8" x1="751.8" y1="410.52" x2="757.49" y2="291.17" gradientUnits="userSpaceOnUse"><stop offset="0" stop-color="#fff"/><stop offset="1" stop-color="#dedfe0"/></linearGradient><linearGradient id="linear-gradient-9" x1="1091.8" y1="360.3" x2="760.41" y2="145.25" xlink:href="#linear-gradient-4"/><linearGradient id="New_Gradient_Swatch_copy_8" x1="815.29" y1="494.84" x2="881.3" y2="475.08" gradientUnits="userSpaceOnUse"><stop offset="0.04" stop-color="#ffa98c"/><stop offset="0.32" stop-color="#ffb892"/><stop offset="0.86" stop-color="#fee1a3"/><stop offset="1" stop-color="#feeca8"/></linearGradient><linearGradient id="New_Gradient_Swatch_copy_8-2" x1="765.26" y1="505.41" x2="885.78" y2="478.4" xlink:href="#New_Gradient_Swatch_copy_8"/><radialGradient id="radial-gradient" cx="828.17" cy="492.2" r="22.76" gradientUnits="userSpaceOnUse"><stop offset="0" stop-color="#fff"/><stop offset="0.07" stop-color="#d8d8d8"/><stop offset="0.16" stop-color="#a6a6a6"/><stop offset="0.26" stop-color="#797979"/><stop offset="0.37" stop-color="#545454"/><stop offset="0.47" stop-color="#353535"/><stop offset="0.59" stop-color="#1e1e1e"/><stop offset="0.7" stop-color="#0d0d0d"/><stop offset="0.84" stop-color="#030303"/><stop offset="1"/></radialGradient><radialGradient id="New_Gradient_Swatch_copy_22" cx="805.99" cy="384.33" r="62.98" gradientUnits="userSpaceOnUse"><stop offset="0" stop-color="#eeebf2"/><stop offset="0.58" stop-color="#d4d1d8"/><stop offset="0.94" stop-color="#a5a6b9"/><stop offset="1" stop-color="#9d9eb3"/></radialGradient><radialGradient id="New_Gradient_Swatch_copy_22-2" cx="805.99" cy="384.33" r="62.98" xlink:href="#New_Gradient_Swatch_copy_22"/><radialGradient id="New_Gradient_Swatch_copy_22-3" cx="805.99" cy="384.33" r="62.98" xlink:href="#New_Gradient_Swatch_copy_22"/><radialGradient id="New_Gradient_Swatch_copy_14" cx="809.79" cy="386.55" r="57.28" gradientUnits="userSpaceOnUse"><stop offset="0" stop-color="#2af6ff"/><stop offset="1" stop-color="#138bbd"/></radialGradient><radialGradient id="New_Gradient_Swatch_copy_14-3" cx="809.79" cy="386.55" r="57.28" xlink:href="#New_Gradient_Swatch_copy_14"/><radialGradient id="New_Gradient_Swatch_copy_14-4" cx="809.79" cy="386.55" r="57.28" xlink:href="#New_Gradient_Swatch_copy_14"/><linearGradient id="New_Gradient_Swatch_1" x1="794.95" y1="359.86" x2="820.12" y2="405.23" gradientUnits="userSpaceOnUse"><stop offset="0" stop-color="#fff"/><stop offset="1"/></linearGradient><linearGradient id="New_Gradient_Swatch_copy_16" x1="-3396.96" y1="508.14" x2="-3413.91" y2="485.43" gradientTransform="translate(4251.38)" gradientUnits="userSpaceOnUse"><stop offset="0.04" stop-color="#1bb0d4"/><stop offset="0.2" stop-color="#1ebfdd"/><stop offset="0.53" stop-color="#27e8f6"/><stop offset="0.63" stop-color="#2af6ff"/><stop offset="0.87" stop-color="#1bb0d4"/></linearGradient><linearGradient id="linear-gradient-10" x1="-3435.98" y1="505.24" x2="-3380.45" y2="492.79" gradientTransform="translate(4037.31 1788.63) rotate(30.31)" gradientUnits="userSpaceOnUse"><stop offset="0.04" stop-color="#138bbd"/><stop offset="0.23" stop-color="#169ac7"/><stop offset="0.59" stop-color="#1fc3df"/><stop offset="1" stop-color="#2af6ff"/></linearGradient><radialGradient id="radial-gradient-2" cx="-3402.56" cy="497.55" r="10.59" gradientTransform="translate(4251.38)" xlink:href="#radial-gradient"/><linearGradient id="New_Gradient_Swatch_copy_8-3" x1="654.05" y1="648.41" x2="720.06" y2="628.64" xlink:href="#New_Gradient_Swatch_copy_8"/><linearGradient id="New_Gradient_Swatch_copy_8-4" x1="604.02" y1="658.98" x2="724.53" y2="631.96" xlink:href="#New_Gradient_Swatch_copy_8"/><radialGradient id="radial-gradient-3" cx="666.93" cy="645.76" r="22.76" xlink:href="#radial-gradient"/><radialGradient id="New_Gradient_Swatch_copy_22-4" cx="643.82" cy="538.11" r="67.15" xlink:href="#New_Gradient_Swatch_copy_22"/><radialGradient id="New_Gradient_Swatch_copy_22-5" cx="643.82" cy="538.11" r="67.15" xlink:href="#New_Gradient_Swatch_copy_22"/><radialGradient id="New_Gradient_Swatch_copy_22-6" cx="643.82" cy="538.11" r="67.15" xlink:href="#New_Gradient_Swatch_copy_22"/><radialGradient id="New_Gradient_Swatch_copy_19" cx="648.55" cy="540.11" r="57.28" gradientUnits="userSpaceOnUse"><stop offset="0" stop-color="#a56ef4"/><stop offset="1" stop-color="#6b24d6"/></radialGradient><radialGradient id="New_Gradient_Swatch_copy_19-3" cx="648.55" cy="540.11" r="57.28" xlink:href="#New_Gradient_Swatch_copy_19"/><radialGradient id="New_Gradient_Swatch_copy_19-4" cx="648.55" cy="540.11" r="57.28" xlink:href="#New_Gradient_Swatch_copy_19"/><linearGradient id="New_Gradient_Swatch_1-2" x1="633.71" y1="513.42" x2="658.88" y2="558.8" xlink:href="#New_Gradient_Swatch_1"/><linearGradient id="New_Gradient_Swatch_copy_21" x1="-3558.21" y1="661.7" x2="-3575.15" y2="638.99" gradientTransform="translate(4251.38)" gradientUnits="userSpaceOnUse"><stop offset="0.04" stop-color="#6b24d6"/><stop offset="0.2" stop-color="#7733dc"/><stop offset="0.5" stop-color="#975ced"/><stop offset="0.63" stop-color="#a56ef4"/><stop offset="0.87" stop-color="#6b24d6"/></linearGradient><linearGradient id="New_Gradient_Swatch_copy_13" x1="-3597.22" y1="658.8" x2="-3541.69" y2="646.35" gradientTransform="translate(4251.38)" gradientUnits="userSpaceOnUse"><stop offset="0.04" stop-color="#6b24d6"/><stop offset="0.29" stop-color="#7733dc"/><stop offset="0.79" stop-color="#975ced"/><stop offset="1" stop-color="#a56ef4"/></linearGradient><radialGradient id="radial-gradient-4" cx="-3563.81" cy="651.11" r="10.59" gradientTransform="translate(4251.38)" xlink:href="#radial-gradient"/><linearGradient id="New_Gradient_Swatch_copy_8-5" x1="488.97" y1="570.34" x2="554.97" y2="550.58" xlink:href="#New_Gradient_Swatch_copy_8"/><linearGradient id="New_Gradient_Swatch_copy_8-6" x1="438.94" y1="580.92" x2="559.45" y2="553.9" xlink:href="#New_Gradient_Swatch_copy_8"/><radialGradient id="radial-gradient-5" cx="501.85" cy="567.7" r="22.76" xlink:href="#radial-gradient"/><radialGradient id="New_Gradient_Swatch_copy_22-7" cx="480.01" cy="460.47" r="63.23" xlink:href="#New_Gradient_Swatch_copy_22"/><radialGradient id="New_Gradient_Swatch_copy_22-8" cx="480.01" cy="460.47" r="63.23" xlink:href="#New_Gradient_Swatch_copy_22"/><radialGradient id="New_Gradient_Swatch_copy_22-9" cx="480.01" cy="460.47" r="63.23" xlink:href="#New_Gradient_Swatch_copy_22"/><radialGradient id="New_Gradient_Swatch_copy_15" cx="483.46" cy="462.05" r="57.28" gradientUnits="userSpaceOnUse"><stop offset="0" stop-color="#ff63ce"/><stop offset="1" stop-color="#9f19ab"/></radialGradient><radialGradient id="New_Gradient_Swatch_copy_15-3" cx="483.46" cy="462.05" r="57.28" xlink:href="#New_Gradient_Swatch_copy_15"/><radialGradient id="New_Gradient_Swatch_copy_15-4" cx="483.46" cy="462.05" r="57.28" xlink:href="#New_Gradient_Swatch_copy_15"/><linearGradient id="New_Gradient_Swatch_1-3" x1="468.62" y1="435.36" x2="493.8" y2="480.74" xlink:href="#New_Gradient_Swatch_1"/><linearGradient id="linear-gradient-11" x1="-3723.29" y1="583.64" x2="-3740.24" y2="560.93" gradientTransform="translate(4251.38)" gradientUnits="userSpaceOnUse"><stop offset="0.04" stop-color="#9f19ab"/><stop offset="0.16" stop-color="#ae25b1"/><stop offset="0.41" stop-color="#d744bf"/><stop offset="0.63" stop-color="#ff63ce"/><stop offset="0.87" stop-color="#dc48c1"/></linearGradient><linearGradient id="New_Gradient_Swatch_copy_9" x1="-3762.3" y1="580.74" x2="-3706.77" y2="568.29" gradientTransform="translate(4030.81 1963.65) rotate(30.31)" gradientUnits="userSpaceOnUse"><stop offset="0.04" stop-color="#9f19ab"/><stop offset="0.24" stop-color="#ae25b1"/><stop offset="0.65" stop-color="#d744bf"/><stop offset="1" stop-color="#ff63ce"/></linearGradient><radialGradient id="radial-gradient-6" cx="-3728.89" cy="573.05" r="10.59" gradientTransform="translate(4251.38)" xlink:href="#radial-gradient"/></defs><g class="cls-1"><g id="Layer_2" data-name="Layer 2"><g id="Layer_1-2" data-name="Layer 1"><path class="cls-2" d="M388.51,698.75l20.12,11.92,43.66-1.91c22.4-1,43.74,8.1,56.1,23.87l12.78,16.3C529.05,759,542.76,764.67,557,763.8l24.14-1.47c16.77-1,33.36,3.48,46.26,12.58L640,783.77l51.78,12.09c13.82,3.23,28.62-.42,38.2-9.42l101.4-95.3,101.41-95.3c10.77-10.12-.34-25.91-16-22.81L655.2,624.66,393.68,676.3C381.18,678.77,378,692.52,388.51,698.75Z"/><path class="cls-3" d="M658.08,626.31l-253.92,50c-11.91,2.35-14.38,15.61-4.38,21.54l19.57,11.49,42.35-1.6c21.33-.93,42.77,8,54.54,23.06l12.85,15.74c7.51,9.57,21.9,15.39,35.49,14.56L588.36,760c16-1,32.11,3,44.4,11.7L644.83,780l49.68,11.21c13.16,3.07,27.54-.64,36.66-9.2l97.52-91.56,98.17-92.09c10.27-9.65.12-25-14.85-22.1l-127,25Z"/><path class="cls-4" d="M661,628,414.64,676.38c-11.31,2.24-13.1,15-3.6,20.64l19,11,41-1.28c20.26-.89,41.79,8,53,22.26L537,744.2c7.13,9.1,22.22,15,35.12,14.25l23.44-.85c15.18-.93,30.85,2.6,42.52,10.82l11.58,7.85,47.58,10.33c12.5,2.92,26.45-.85,35.12-9L826,689.8,921,600.91c9.75-9.16.57-24.18-13.65-21.38L784.13,603.75Z"/><path class="cls-5" d="M663.85,629.61,425.12,676.43c-10.72,2.11-11.81,14.39-2.81,19.72l18.48,10.6,39.73-1c19.2-.85,40.81,7.93,51.41,21.44l13,14.6c6.75,8.61,22.52,14.69,34.75,13.94l23.09-.54c14.38-.88,29.6,2.15,40.65,9.94l11.09,7.34L700,782c11.85,2.77,25.37-1.06,33.58-8.77l89.77-84.08L915,603.44c9.24-8.68,1-23.31-12.44-20.65L783.22,606.2Z"/><path class="cls-6" d="M666.74,631.25,435.6,676.47c-10.12,2-10.52,13.78-2,18.82l17.93,10.15,38.41-.63c18.14-.8,39.85,7.88,49.85,20.64l13.09,14c6.38,8.14,22.83,14.34,34.38,13.64l22.74-.24c13.58-.82,28.35,1.71,38.79,9.07l10.59,6.83,43.37,8.57c11.19,2.62,24.28-1.27,32-8.56l85.89-80.33L909.12,606c8.72-8.19,1.48-22.44-11.25-19.93L782.31,608.65Z"/><path class="cls-7" d="M669.62,632.9,446.08,676.51c-9.53,1.88-9.24,13.17-1.24,17.92l17.39,9.7,37.1-.31c17.07-.75,38.87,7.82,48.28,19.84l13.17,13.45c6,7.66,23.15,14,34,13.33l22.4.07c12.78-.78,27.09,1.26,36.91,8.19L664.2,765l41.27,7.69c10.53,2.46,23.2-1.49,30.49-8.34l82-76.59,85.23-79.27a11.18,11.18,0,0,0-10.05-19.22L781.39,611.1Z"/><path class="cls-8" d="M672.5,634.55l-215.94,42c-8.93,1.76-7.95,12.56-.45,17L473,702.82h35.79c16-.7,37.89,7.77,46.72,19l13.24,12.88c5.63,7.18,23.46,13.65,33.65,13l22,.39c12-.73,25.83.81,35,7.31l9.6,5.81,39.17,6.81c9.87,2.31,22.12-1.7,28.95-8.13l78.14-72.84,82-76.07c7.7-7.24,2.39-20.71-8.84-18.5l-108,21Z"/><path class="cls-9" d="M675.39,636.2,467,676.6c-8.34,1.65-6.66,11.95.34,16.1l16.29,8.81,34.48.33c14.93-.65,36.91,7.72,45.15,18.23l13.32,12.31c5.25,6.7,23.77,13.29,33.28,12.71l21.7.7c11.19-.69,24.58.37,33.18,6.43l9.11,5.3L711,763.45c9.21,2.16,21-1.91,27.41-7.91l74.26-69.11,78.76-72.86c7.18-6.75,2.83-19.84-7.64-17.77L779.56,616Z"/><path class="cls-10" d="M678.27,637.85,477.52,676.64c-7.74,1.53-5.37,11.34,1.13,15.19l15.74,8.37,33.17.65c13.87-.6,35.94,7.66,43.59,17.43L584.54,730c4.88,6.22,24.08,13,32.91,12.41l21.36,1c10.38-.63,23.32-.07,31.31,5.56l8.61,4.79,34.95,5.05c8.56,2,20-2.12,25.88-7.69L810,685.76l75.51-69.66c6.67-6.27,3.29-19-6.44-17.05l-100.37,19.4Z"/><path class="cls-11" d="M681.15,639.49,488,676.69c-7.15,1.41-4.09,10.72,1.91,14.28l15.2,7.92,31.86,1c12.8-.57,35,7.6,42,16.61l13.47,11.17c4.51,5.74,24.4,12.59,32.55,12.1l21,1.31c9.58-.58,22.06-.52,29.43,4.68l8.12,4.28,32.85,4.18c7.9,1.84,18.87-2.35,24.34-7.49l66.51-61.62,72.28-66.46c6.15-5.78,3.74-18.1-5.24-16.33l-96.58,18.6Z"/><path class="cls-12" d="M684,641.14,498.48,676.73c-6.55,1.29-2.8,10.12,2.7,13.38l14.65,7.47,30.55,1.3c11.73-.52,34,7.55,40.46,15.81l13.55,10.59c4.12,5.27,24.7,12.25,32.17,11.79l20.66,1.63c8.79-.54,20.81-1,27.57,3.8l7.63,3.77,30.74,3.3C726.4,751.26,737,747,742,742.3l62.63-57.88,69-63.25c5.65-5.31,4.2-17.24-4-15.62l-92.78,17.8Z"/><path class="cls-13" d="M686.92,642.79l-178,34c-6,1.18-1.51,9.51,3.49,12.47l14.1,7,29.24,1.61c10.66-.47,33,7.5,38.89,15l13.63,10c3.75,4.79,25,11.9,31.8,11.49l20.32,1.94c8-.49,19.56-1.41,25.7,2.92l7.13,3.26,28.64,2.42c6.59,1.53,16.7-2.77,21.26-7.06l58.75-54.14,65.81-60c5.13-4.82,4.65-16.37-2.83-14.89l-89,17Z"/><path class="cls-14" d="M689.8,644.44,519.44,676.82c-5.36,1.06-.23,8.89,4.27,11.56L537.27,695l27.93,1.93c9.6-.42,32,7.44,37.33,14.2l13.7,9.45c3.38,4.31,25.33,11.55,31.44,11.18l20,2.24c7.18-.44,18.3-1.85,23.82,2l6.64,2.75,26.54,1.55c5.93,1.38,15.62-3,19.72-6.84l54.87-50.4,62.57-56.84c4.62-4.34,5.11-15.5-1.63-14.17L775,628.25Z"/><path class="cls-15" d="M692.69,646.09,529.92,676.86c-4.77.94,1.06,8.28,5.06,10.66l13,6.14,26.61,2.25c8.54-.37,31.06,7.39,35.77,13.4l13.78,8.87c3,3.83,25.64,11.21,31.07,10.87l19.62,2.56c6.39-.39,17-2.3,22,1.16l6.14,2.24,24.44.67c5.27,1.23,14.53-3.2,18.18-6.63l51-46.65,59.34-53.64c4.1-3.85,5.56-14.63-.43-13.45L774.07,630.7Z"/><path class="cls-16" d="M695.57,647.73,540.4,676.9c-4.17.83,2.35,7.68,5.85,9.75l12.46,5.7,25.3,2.57c7.47-.32,30.08,7.34,34.2,12.59l13.86,8.31c2.63,3.35,25.95,10.85,30.71,10.56l19.27,2.87c5.59-.34,15.79-2.75,20.09.28l5.65,1.73,22.33-.21c4.61,1.07,13.45-3.41,16.64-6.41l47.12-42.91L850,631.3c3.59-3.38,6-13.77.78-12.74l-77.59,14.59Z"/><path class="cls-17" d="M698.46,649.38,550.88,677c-3.58.7,3.64,7.06,6.64,8.84L569.43,691l24,2.9c6.4-.28,29.11,7.28,32.64,11.78L640,713.45c2.25,2.88,26.26,10.51,30.34,10.26l18.93,3.18c4.79-.3,14.53-3.2,18.22-.6l5.15,1.22,20.23-1.09c3.95.92,12.36-3.62,15.1-6.2l43.24-39.17,52.86-47.22c3.08-2.89,6.47-12.9,2-12L772.25,635.6Z"/><path class="cls-18" d="M701.34,651l-140,26c-3,.59,4.92,6.45,7.42,7.93l11.37,4.81L602.83,693c5.33-.24,28.13,7.22,31.07,11l14,7.16c1.88,2.39,26.58,10.15,30,9.95l18.58,3.48c4-.24,13.28-3.63,16.35-1.47l4.66.71,18.13-2c3.29.77,11.28-3.84,13.56-6l39.36-35.43,49.62-44c2.57-2.41,6.93-12,3.18-11.29l-70,13Z"/><path class="cls-19" d="M704.22,652.68,571.84,677c-2.39.47,6.21,5.84,8.21,7l10.82,4.36L612.24,692c4.27-.19,27.15,7.17,29.51,10.17l14.09,6.59c1.5,1.92,26.88,9.81,29.6,9.64l18.23,3.8c3.19-.19,12-4.08,14.48-2.35l4.17.2,16-2.85c2.63.62,10.19-4,12-5.76l35.48-31.69,46.39-40.82c2-1.93,7.37-11.16,4.38-10.57L770.42,640.5Z"/><path class="cls-20" d="M707.11,654.32,582.32,677.08c-1.79.35,7.5,5.23,9,6.12l10.27,3.91L621.65,691c3.2-.14,26.18,7.12,27.94,9.37l14.17,6c1.12,1.43,27.19,9.46,29.23,9.33l17.89,4.11c2.39-.15,10.76-4.53,12.61-3.23l3.67-.31,13.92-3.73c2,.46,9.11-4.26,10.48-5.55L783.16,679l43.15-37.61c1.54-1.45,7.83-10.3,5.59-9.86L769.5,643Z"/><path class="cls-21" d="M710,656,592.8,677.12c-1.19.24,8.78,4.62,9.78,5.21l9.73,3.47L631.06,690c2.13-.09,25.2,7.06,26.38,8.57L671.68,704c.75,1,27.5,9.11,28.86,9l17.54,4.42c1.6-.1,9.52-5,10.74-4.11l3.18-.82,11.82-4.61c1.31.31,8-4.48,8.94-5.33l27.72-24.21L820.4,644c1-1,8.28-9.43,6.79-9.14l-58.6,10.58Z"/><path class="cls-22" d="M712.87,657.62,603.28,677.16c-.6.12,10.07,4,10.57,4.31l9.18,3L640.47,689c1.06,0,24.22,7,24.81,7.75l14.32,4.88c.37.48,27.82,8.76,28.5,8.72l17.19,4.72c.8-.05,8.26-5.41,8.87-5l2.69-1.33,9.71-5.49c.66.16,6.94-4.69,7.4-5.12l23.85-20.46,36.67-31.2c.52-.48,8.74-8.56,8-8.41l-54.8,9.77Z"/><polygon class="cls-23" points="613.76 677.21 673.13 694.96 732.5 712.71 775.13 677.02 817.76 641.33 766.76 650.3 715.76 659.27 613.76 677.21"/><polygon class="cls-24" points="506.13 148.32 0 307.75 311.82 583.07 870.79 103.83 506.13 148.32"/><polygon class="cls-25" points="991.86 0 100.11 420.85 114.94 352.25 22.25 298.49 991.86 0"/><polygon class="cls-26" points="991.86 0 328.15 476.46 444.95 608.1 576.01 610.88 991.86 0"/><polygon class="cls-27" points="991.86 0 483.88 238.7 532.08 393.96 991.86 0"/><polygon class="cls-28" points="991.86 0 483.88 238.7 532.08 393.96 991.86 0"/><polygon class="cls-29" points="991.86 0 483.88 238.7 399.29 244.49 349.24 198.14 991.86 0"/><polygon class="cls-30" points="991.86 0 580.29 294.78 532.08 393.96 991.86 0"/><polygon class="cls-31" points="991.86 0 580.29 294.78 532.08 393.96 991.86 0"/><polygon class="cls-32" points="991.86 0 580.29 294.78 644.48 365.46 723.27 394.2 991.86 0"/><polygon class="cls-33" points="723.27 394.2 644.48 365.46 580.29 294.78 532.08 393.96 483.88 238.7 399.29 244.49 349.24 198.14 401.15 243.1 485.33 238.12 532.55 387.48 580.29 294.78 644.71 362.45 723.27 394.2"/><path class="cls-34" d="M844.15,496.19l-28.77-29.92c-1.77-1.84-3.77-2-4.49-.4l-6.84,15.53c-.71,1.62.14,4.41,1.9,6.25l28.77,29.92c1.77,1.83,3.77,2,4.49.4l6.84-15.53C846.77,500.82,845.91,498,844.15,496.19Z"/><path class="cls-35" d="M843.31,496.47l-28.77-29.92c-1.76-1.84-3.77-2-4.48-.4l-6.85,15.53c-.71,1.62.14,4.41,1.91,6.25l28.76,29.92c1.77,1.83,3.78,2,4.49.4l6.84-15.53C845.93,501.1,845.07,498.31,843.31,496.47Z"/><path class="cls-36" d="M843.31,496.47l-28.77-29.92c-1.29-1.35-2.71-1.79-3.66-1.3a4.3,4.3,0,0,1,2.73,1.49l28.76,29.92c1.77,1.83,2.62,4.63,1.91,6.24l-6.85,15.54a1.77,1.77,0,0,1-.82.9,1.72,1.72,0,0,0,1.76-1.09l6.84-15.53C845.93,501.1,845.07,498.31,843.31,496.47Z"/><path class="cls-37" d="M812.35,465.15h-.06l9.76,32,23,2.05a.36.36,0,0,0,0-.09l-22-4.15Z"/><g class="cls-38"><path class="cls-39" d="M828.54,497.69,836.18,519l.06,0-6.47-21.22Z"/><path class="cls-39" d="M818.76,486.35,803.53,485a.36.36,0,0,0,0,.09l15.71,3Z"/></g><path class="cls-40" d="M813.68,472a3,3,0,0,1-1.94-2.15c-.29-1.06.12-1.83.9-1.7a3,3,0,0,1,1.94,2.15C814.87,471.31,814.47,472.08,813.68,472Z"/><path class="cls-41" d="M813.43,470.86a.64.64,0,0,1-.53-.28l-29.75-43.95,1.06-.72,29.22,43.17,29.21-43.17,1.06.72L814,470.58A.66.66,0,0,1,813.43,470.86Z"/><path class="cls-41" d="M813.43,470.86a.65.65,0,0,1-.61-.44l-14.51-43.95,1.22-.4,13.9,42.11,13.89-42.11,1.22.4L814,470.42A.63.63,0,0,1,813.43,470.86Z"/><path class="cls-42" d="M851.72,413.06a28.65,28.65,0,0,0-.41-4.84,48.17,48.17,0,0,0-.91-5.4,39.68,39.68,0,0,0-6.85-14c-11.28-12.68-30.25-8.91-30.25-8.91s-19-3.77-30.25,8.9a39.59,39.59,0,0,0-6.86,14,47.66,47.66,0,0,0-.9,5.39,28.54,28.54,0,0,0-.42,4.83c0,4.38,1,9,7.11,11.76,7,5.18,18.39,8.55,31.32,8.55s24.36-3.37,31.32-8.55C850.47,422.54,851.72,417.47,851.72,413.06Z"/><path class="cls-43" d="M801.09,432.32c5.21,4.59,19.13,4.81,24.42,0-.17-29.06-5.57-52.39-12.21-52.39S801.26,403.26,801.09,432.32Z"/><path class="cls-44" d="M820.34,374.42a37.32,37.32,0,0,0-14.08,0,46.6,46.6,0,0,1,7,5.51A46.6,46.6,0,0,1,820.34,374.42Z"/><path class="cls-45" d="M813.3,379.93c-17,0-30.82,20-31.31,44.9,0,7.22,13.94,10.09,19.1,7.49C801.26,403.26,806.66,379.93,813.3,379.93Z"/><path class="cls-45" d="M813.3,379.93c6.64,0,12,23.33,12.21,52.39,4.42,2.6,18.55-.27,19.09-7.49C844.11,399.91,830.29,379.93,813.3,379.93Z"/><path class="cls-46" d="M783.05,388.83c11.28-12.67,30.25-8.9,30.25-8.9a46.6,46.6,0,0,0-7-5.51A38.28,38.28,0,0,0,783.05,388.83Z"/><path class="cls-47" d="M843.55,388.84a38.27,38.27,0,0,0-23.21-14.42,46.6,46.6,0,0,0-7,5.51S832.27,376.16,843.55,388.84Z"/><path class="cls-48" d="M840.42,393.46c0,10.15-12,18.38-26.83,18.38s-26.83-8.23-26.83-18.38,12-18.38,26.83-18.38S840.42,383.31,840.42,393.46Z"/><path class="cls-49" d="M855.58,502.9c0,3-1.05,5.18-2.75,6.22l-3,1.84c-1.77,1-.64-1.26-3.33-2.81-5.42-3.13-9.81-10.7-9.81-16.92,0-3.07-2.84-3.09-1.1-4.12l3.3-1.88c1.77-1,4.18-.78,6.84.76C851.19,489.11,855.58,496.68,855.58,502.9Z"/><ellipse class="Graphic-Style-3" cx="842.57" cy="499.15" rx="7.98" ry="13.82" transform="translate(-136.74 493.47) rotate(-30.31)"/><path class="cls-50" d="M843,487.66c-2.6-1.5-5-1.7-6.71-.82a7.7,7.7,0,0,1,5.86,1.15c5.42,3.13,9.81,10.7,9.81,16.91,0,3.24-1.2,5.46-3.1,6.42,2.39-.67,3.94-3.05,3.94-6.75C852.84,498.36,848.45,490.79,843,487.66Z"/><path class="cls-33" d="M840.05,504.38a8.25,8.25,0,0,1-1.43-2.08,5,5,0,0,1-.5-1.85.22.22,0,0,1,.09-.21q.09-.06.24,0l1.42.82a1,1,0,0,1,.47.63,3.9,3.9,0,0,0,2,2.44,1.94,1.94,0,0,0,1.48.36c.36-.13.54-.5.54-1.12a2.72,2.72,0,0,0-.49-1.62,4.23,4.23,0,0,0-1.43-1.25l-1.6-.92a.71.71,0,0,1-.26-.28.63.63,0,0,1-.11-.36v-.77c0-.22.06-.36.2-.42l2.76-1.5-4.42-2.55a.78.78,0,0,1-.28-.29.72.72,0,0,1-.11-.36v-1.19a.28.28,0,0,1,.11-.26.29.29,0,0,1,.28,0l6.67,3.85a.86.86,0,0,1,.28.29.79.79,0,0,1,.11.38v1.09c0,.2-.07.33-.21.38l-2.66,1.61.18.13a7.93,7.93,0,0,1,2.37,2.39,5.66,5.66,0,0,1,.87,3.05,2.35,2.35,0,0,1-.55,1.73,1.78,1.78,0,0,1-1.52.47,5.74,5.74,0,0,1-2.21-.8A9.9,9.9,0,0,1,840.05,504.38Z"/><path class="cls-51" d="M682.9,649.75l-28.76-29.91c-1.77-1.84-3.78-2-4.49-.41L642.8,635c-.71,1.61.15,4.41,1.91,6.24l28.77,29.92c1.76,1.84,3.77,2,4.48.4L684.81,656C685.52,654.39,684.67,651.59,682.9,649.75Z"/><path class="cls-52" d="M682.06,650,653.3,620.11c-1.77-1.83-3.78-2-4.49-.4L642,635.25c-.71,1.61.15,4.41,1.91,6.24l28.77,29.92c1.76,1.84,3.77,2,4.48.4L684,656.28C684.68,654.67,683.83,651.87,682.06,650Z"/><path class="cls-53" d="M682.06,650,653.3,620.11c-1.3-1.34-2.72-1.79-3.66-1.3a4.3,4.3,0,0,1,2.72,1.49l28.77,29.92c1.77,1.84,2.62,4.63,1.91,6.25L676.19,672a1.78,1.78,0,0,1-.82.9,1.71,1.71,0,0,0,1.75-1.09L684,656.28C684.68,654.67,683.83,651.87,682.06,650Z"/><path class="cls-37" d="M651.11,618.72h0l9.73,32,23,2.05,0-.09-22-4.15Z"/><g class="cls-38"><path class="cls-39" d="M667.3,651.25l7.63,21.32H675l-6.48-21.22Z"/><path class="cls-39" d="M657.52,639.92l-15.23-1.36,0,.09,15.72,3Z"/></g><path class="cls-40" d="M652.44,625.52a3,3,0,0,1-1.94-2.15c-.29-1.07.11-1.83.9-1.71a3,3,0,0,1,1.94,2.15C653.63,624.88,653.22,625.64,652.44,625.52Z"/><path class="cls-41" d="M652.18,624.42a.63.63,0,0,1-.53-.28l-29.74-43.95,1.06-.71,29.21,43.16,29.22-43.16,1.05.71-29.74,43.95A.62.62,0,0,1,652.18,624.42Z"/><path class="cls-41" d="M652.18,624.42a.62.62,0,0,1-.6-.44l-14.51-44,1.21-.4,13.9,42.11,13.9-42.11,1.22.4-14.51,44A.63.63,0,0,1,652.18,624.42Z"/><path class="cls-54" d="M690.48,566.62a29.82,29.82,0,0,0-.41-4.84,47.54,47.54,0,0,0-.92-5.39,39.41,39.41,0,0,0-6.84-14c-11.28-12.69-30.26-8.91-30.26-8.91s-19-3.78-30.24,8.9a39.5,39.5,0,0,0-6.86,14,47.79,47.79,0,0,0-.91,5.38,29.7,29.7,0,0,0-.41,4.83c0,4.39,1,9,7.1,11.77,7,5.17,18.4,8.55,31.32,8.55s24.36-3.38,31.32-8.55C689.23,576.11,690.48,571,690.48,566.62Z"/><path class="cls-55" d="M639.85,585.88c5.21,4.59,19.12,4.81,24.41,0-.17-29-5.56-52.38-12.21-52.38S640,556.83,639.85,585.88Z"/><path class="cls-56" d="M659.09,528A37.27,37.27,0,0,0,645,528a46.07,46.07,0,0,1,7,5.51A45.87,45.87,0,0,1,659.09,528Z"/><path class="cls-57" d="M652.05,533.5c-17,0-30.81,20-31.3,44.89,0,7.22,13.93,10.09,19.1,7.49C640,556.83,645.41,533.5,652.05,533.5Z"/><path class="cls-57" d="M652.05,533.5c6.65,0,12,23.33,12.21,52.38,4.43,2.6,18.56-.27,19.1-7.49C682.87,553.48,669.05,533.5,652.05,533.5Z"/><path class="cls-58" d="M621.81,542.4c11.28-12.68,30.24-8.9,30.24-8.9a46.07,46.07,0,0,0-7-5.51A38.21,38.21,0,0,0,621.81,542.4Z"/><path class="cls-59" d="M682.31,542.41A38.23,38.23,0,0,0,659.09,528a45.87,45.87,0,0,0-7,5.51S671,529.72,682.31,542.41Z"/><path class="cls-60" d="M679.18,547c0,10.16-12,18.39-26.83,18.39s-26.83-8.23-26.83-18.39,12-18.38,26.83-18.38S679.18,536.87,679.18,547Z"/><path class="cls-61" d="M694.34,656.46c0,3-1.05,5.19-2.75,6.23l-3,1.83c-1.78,1-.64-1.26-3.33-2.81-5.42-3.13-9.81-10.7-9.81-16.91,0-3.07-2.84-3.1-1.1-4.13l3.3-1.88c1.76-.95,4.18-.78,6.84.76C690,642.68,694.34,650.25,694.34,656.46Z"/><path class="cls-62" d="M691.13,658.37c0,6.22-4.39,8.72-9.81,5.59s-9.8-10.69-9.8-16.91,4.39-8.71,9.8-5.59S691.13,652.16,691.13,658.37Z"/><path class="cls-63" d="M681.79,641.23c-2.59-1.5-4.95-1.7-6.7-.83a7.75,7.75,0,0,1,5.86,1.16c5.41,3.12,9.8,10.69,9.8,16.91,0,3.23-1.19,5.46-3.09,6.41,2.39-.67,3.94-3,3.94-6.74C691.6,651.92,687.21,644.35,681.79,641.23Z"/><path class="cls-33" d="M680.9,658.93a.75.75,0,0,1-.11-.37v-9.18l-2.34.71a.26.26,0,0,1-.23,0,.7.7,0,0,1-.3-.35l-.67-1.38a.71.71,0,0,1-.07-.29c0-.15.05-.23.17-.26l3.47-1.09a.57.57,0,0,1,.39.1l1.4.8a.71.71,0,0,1,.26.28.75.75,0,0,1,.11.36v11.61a.22.22,0,0,1-.37.21l-1.45-.83A.78.78,0,0,1,680.9,658.93Z"/><path class="cls-64" d="M517.82,571.69l-28.77-29.92c-1.76-1.83-3.77-2-4.48-.4l-6.85,15.53c-.71,1.62.14,4.42,1.91,6.25l28.77,29.92c1.76,1.84,3.77,2,4.48.4l6.85-15.53C520.44,576.33,519.59,573.53,517.82,571.69Z"/><path class="cls-65" d="M517,572l-28.76-29.92c-1.77-1.83-3.78-2-4.49-.4l-6.85,15.53c-.71,1.62.15,4.42,1.91,6.25l28.77,29.92c1.76,1.84,3.77,2,4.48.4l6.85-15.53C519.6,576.61,518.75,573.81,517,572Z"/><path class="cls-66" d="M517,572l-28.76-29.92c-1.3-1.34-2.72-1.79-3.67-1.3a4.25,4.25,0,0,1,2.73,1.49l28.77,29.92c1.76,1.83,2.62,4.63,1.91,6.25l-6.85,15.53a1.82,1.82,0,0,1-.82.9,1.71,1.71,0,0,0,1.75-1.09l6.85-15.53C519.6,576.61,518.75,573.81,517,572Z"/><path class="cls-37" d="M486,540.65H486l9.76,32,22.95,2,0-.09-21.95-4.15Z"/><g class="cls-38"><path class="cls-39" d="M502.22,573.19l7.63,21.31.07,0-6.48-21.22Z"/><path class="cls-39" d="M492.44,561.86l-15.23-1.36,0,.09,15.72,3Z"/></g><path class="cls-40" d="M487.36,547.46a3,3,0,0,1-1.94-2.15c-.29-1.07.11-1.83.9-1.71a3,3,0,0,1,1.94,2.15C488.54,546.81,488.14,547.58,487.36,547.46Z"/><path class="cls-41" d="M487.1,546.36a.63.63,0,0,1-.53-.28l-29.74-44,1.06-.72,29.21,43.17,29.21-43.17,1.06.72-29.74,44A.63.63,0,0,1,487.1,546.36Z"/><path class="cls-41" d="M487.1,546.36a.64.64,0,0,1-.61-.44L472,502l1.21-.4,13.9,42.11L501,501.57l1.21.4-14.5,43.95A.63.63,0,0,1,487.1,546.36Z"/><path class="cls-67" d="M525.4,488.56a28.74,28.74,0,0,0-.42-4.84,47.6,47.6,0,0,0-.91-5.39,39.33,39.33,0,0,0-6.84-14C506,451.66,487,455.44,487,455.44s-19-3.78-30.24,8.9a39.54,39.54,0,0,0-6.86,14,48,48,0,0,0-.91,5.39,28.62,28.62,0,0,0-.41,4.83c0,4.38,1,9,7.1,11.76,7,5.18,18.4,8.55,31.32,8.55s24.36-3.37,31.32-8.55C524.14,498.05,525.4,493,525.4,488.56Z"/><path class="cls-68" d="M474.76,507.82c5.22,4.59,19.13,4.81,24.42,0-.17-29.05-5.57-52.38-12.21-52.38S474.93,478.77,474.76,507.82Z"/><path class="cls-69" d="M494,449.92a37.32,37.32,0,0,0-14.08,0,46.26,46.26,0,0,1,7,5.52A46.26,46.26,0,0,1,494,449.92Z"/><path class="cls-70" d="M487,455.44c-17,0-30.81,20-31.3,44.89,0,7.22,13.93,10.09,19.09,7.49C474.93,478.77,480.33,455.44,487,455.44Z"/><path class="cls-70" d="M487,455.44c6.64,0,12,23.33,12.21,52.38,4.43,2.6,18.56-.27,19.1-7.49C517.79,475.42,504,455.44,487,455.44Z"/><path class="cls-71" d="M456.73,464.34c11.28-12.68,30.24-8.9,30.24-8.9a46.26,46.26,0,0,0-7-5.52A38.27,38.27,0,0,0,456.73,464.34Z"/><path class="cls-72" d="M517.23,464.35A38.29,38.29,0,0,0,494,449.92a46.26,46.26,0,0,0-7,5.52S506,451.66,517.23,464.35Z"/><path class="cls-73" d="M514.1,469c0,10.15-12,18.38-26.83,18.38s-26.83-8.23-26.83-18.38,12-18.38,26.83-18.38S514.1,458.81,514.1,469Z"/><path class="cls-74" d="M529.25,578.4c0,3-1,5.18-2.75,6.23l-3,1.83c-1.77,1-.64-1.26-3.33-2.81-5.41-3.13-9.8-10.7-9.8-16.91,0-3.08-2.84-3.1-1.1-4.13l3.3-1.88c1.76-1,4.18-.78,6.84.76C524.86,564.61,529.25,572.19,529.25,578.4Z"/><ellipse class="cls-75" cx="516.24" cy="574.65" rx="7.98" ry="13.82" transform="translate(-219.45 339.1) rotate(-30.31)"/><path class="cls-76" d="M516.71,563.16c-2.59-1.5-5-1.7-6.71-.82a7.71,7.71,0,0,1,5.87,1.15c5.41,3.13,9.8,10.7,9.8,16.92,0,3.23-1.19,5.46-3.1,6.41,2.4-.67,3.95-3.05,3.95-6.74C526.52,573.86,522.13,566.29,516.71,563.16Z"/><path class="cls-33" d="M512.52,578.55a.72.72,0,0,1-.11-.36v-.93a.56.56,0,0,1,.39-.61l2.42-1.36a14.51,14.51,0,0,0,1.7-.65,2.57,2.57,0,0,0,.89-.65,1.34,1.34,0,0,0,.3-.88,3.12,3.12,0,0,0-.39-1.54,3,3,0,0,0-1.18-1.16c-.52-.3-.92-.36-1.22-.18a1.37,1.37,0,0,0-.55,1q0,.19-.18.21a.38.38,0,0,1-.28-.06l-1.4-.81a.59.59,0,0,1-.23-.24.7.7,0,0,1-.1-.32,3,3,0,0,1,.51-1.68,1.69,1.69,0,0,1,1.36-.69,3.85,3.85,0,0,1,2.07.64,8.51,8.51,0,0,1,2.11,1.7,7.26,7.26,0,0,1,1.31,2.1,6,6,0,0,1,.43,2.19,2.59,2.59,0,0,1-.58,1.83,4.23,4.23,0,0,1-1.81,1l-2.15,1.26,4.39,2.54a.73.73,0,0,1,.27.28.7.7,0,0,1,.11.39v1.28c0,.13,0,.21-.11.25a.29.29,0,0,1-.27,0l-7.43-4.29A.67.67,0,0,1,512.52,578.55Z"/></g></g></g></svg>